<!DOCTYPE svg PUBLIC "-//W3C//DTD SVG 1.1//EN" "http://www.w3.org/Graphics/SVG/1.1/DTD/svg11.dtd"><svg xmlns="http://www.w3.org/2000/svg" width="173.728" height="60"><path fill="#111" d="M141.73 59.706c-1.712-.36-3.614-.911-5.708-1.655-1.675-.587-2.73-.888-3.183-.888-.955 0-1.692.737-2.211 2.211h-1.676V43.81h1.676c.033 4.289 1.424 7.724 4.188 10.32 2.047 1.911 4.352 3.113 6.914 3.609v1.967zM141.73 2.292c-1.725.36-3.202 1.049-4.435 2.065-1.893 1.575-2.848 3.669-2.848 6.283 0 2.412.788 4.624 2.363 6.618 1.497 1.912 4.648 4.325 9.45 7.252.246.15.497.301.752.454 6.098 3.635 10.186 6.818 12.28 9.532 2.094 2.714 3.133 5.814 3.133 9.315 0 4.523-1.591 8.377-4.808 11.593-2.311 2.312-4.972 3.792-7.969 4.436v-2.684a10.471 10.471 0 0 0 3.278-1.953c2.111-1.859 3.166-4.355 3.166-7.455 0-2.329-.854-4.557-2.596-6.685-1.315-1.621-3.73-3.602-7.236-5.944a112.288 112.288 0 0 0-3.603-2.298c-4.49-2.781-7.489-4.976-8.997-6.567-1.491-1.608-2.613-3.368-3.334-5.277-.72-1.927-1.072-4.021-1.072-6.316 0-4.406 1.441-7.992 4.339-10.739C135.8 1.83 138.513.534 141.73.035v2.257zM157.667.386h1.625v13.486h-1.726c-.385-3.719-1.742-6.634-4.037-8.728a11.715 11.715 0 0 0-3.882-2.347V.321c1.162.243 2.361.572 3.597.987 1.407.469 2.396.687 2.949.687.469 0 .77-.101.938-.285.167-.201.335-.637.536-1.324M14.14 47.949c0 3.401.486 5.763 1.441 7.103.971 1.34 2.68 2.011 5.126 2.011v1.725H0v-1.725c2.547 0 4.272-.671 5.177-2.011.905-1.34 1.357-3.702 1.357-7.103V11.863c0-3.401-.452-5.747-1.323-7.037C4.323 3.536 2.58 2.883 0 2.883V1.208h14.14v46.741zM22.058 1.207h1.548c5.83 0 10.487 1.424 13.972 4.255 3.484 2.832 5.227 6.433 5.227 10.823 0 7.07-3.971 11.777-11.878 14.14 1.725 1.105 3.418 2.63 5.076 4.59 1.659 1.943 3.82 5.177 6.5 9.683 3.016 5.01 5.378 8.293 7.07 9.851 1.709 1.542 3.468 2.396 5.294 2.513v1.726H43.09c-2.413-2.949-5.344-7.237-8.779-12.867-3.669-5.914-6.534-9.7-8.611-11.325-1.147-.906-2.36-1.562-3.642-1.968v-2.907c3.818-.155 6.838-1.37 9.087-3.619 2.412-2.429 3.602-5.629 3.602-9.616 0-3.904-1.324-7.053-3.988-9.449-2.284-2.056-5.179-3.236-8.701-3.539V1.207zM56.177 29.738c0-15.542 11.375-28.034 26.741-29.718v2.358C70.01 4.771 65.006 18.034 65.006 29.822c-.001 11.666 4.931 25.577 17.912 27.859V60c-15.372-1.715-26.741-14.857-26.741-30.262M90.836 0c15.178 1.633 26.741 14.426 26.741 29.738 0 15.386-11.433 28.475-26.741 30.245v-2.368c12.471-2.422 17.896-15.953 17.895-27.391.001-11.644-4.871-25.691-17.895-27.93V0zM167.19 30.521v-.925h5.622v-2.911h.841v3.836h-6.463zm0-5.579h6.463v.926h-6.463v-.926zm3.752-3.035l-.425.703c-.268.442-.533.755-.794.943a1.511 1.511 0 0 1-.9.279c-.509 0-.922-.177-1.24-.531-.317-.352-.477-.811-.477-1.375 0-.54.152-1.034.455-1.486h1.05c-.448.466-.671.968-.671 1.505 0 .302.07.549.21.744.141.194.321.292.539.292a.835.835 0 0 0 .546-.213c.171-.142.347-.371.532-.689l.417-.709c.469-.789 1.068-1.184 1.794-1.184.519 0 .939.173 1.263.521.324.347.487.797.487 1.353 0 .638-.196 1.219-.588 1.744h-1.175c.632-.499.948-1.077.948-1.734 0-.291-.081-.533-.244-.725a.758.758 0 0 0-.607-.289c-.395 0-.768.284-1.12.851m2.711-4.927v2.189h-6.463v-1.693c0-.534.073-.951.215-1.249.143-.3.341-.527.592-.685a1.61 1.61 0 0 1 .873-.236c.635 0 1.09.329 1.365.986.09-.472.284-.848.582-1.128a1.52 1.52 0 0 1 1.074-.418c.33 0 .624.085.883.254.259.171.47.419.635.747.162.329.244.741.244 1.233m-5.639.468v.796h1.943v-.616c0-.493-.094-.843-.283-1.052a.938.938 0 0 0-.73-.312c-.62 0-.93.394-.93 1.184m2.767-.07v.866h2.05v-.911c0-.507-.04-.85-.119-1.03s-.202-.326-.368-.436a.965.965 0 0 0-.537-.164.916.916 0 0 0-.541.174 1.043 1.043 0 0 0-.365.492c-.08.213-.12.55-.12 1.009m-3.683-6.718c0-.999.316-1.831.948-2.496.633-.663 1.426-.996 2.378-.996.954 0 1.742.336 2.367 1.005.624.672.937 1.518.937 2.538 0 .974-.313 1.788-.937 2.437-.625.649-1.408.972-2.348.972-.966 0-1.764-.326-2.397-.98-.632-.654-.948-1.48-.948-2.48m.878-.036c0 .739.233 1.349.695 1.824.463.477 1.053.715 1.772.715.696 0 1.276-.238 1.738-.716.463-.479.695-1.077.695-1.796 0-.721-.237-1.323-.707-1.806-.472-.483-1.06-.724-1.764-.724-.684 0-1.26.241-1.727.724-.468.483-.702 1.075-.702 1.779M167.19.9V.021h6.463v.796l-4.972 4.32h4.972v.87h-6.463v-.749L172.205.9h-5.015z"/></svg>